<svg width="196" height="66" viewBox="0 0 196 66" fill="none" xmlns="http://www.w3.org/2000/svg">
<g clip-path="url(#clip0_53_10448)">
<path d="M180.392 0.322965H15.617C15.0164 0.322965 14.423 0.322965 13.824 0.326215C13.3225 0.329465 12.825 0.338906 12.3188 0.346853C11.2189 0.359693 10.1217 0.455689 9.03656 0.634006C7.95295 0.816206 6.90329 1.1597 5.92307 1.65288C4.94406 2.15023 4.0495 2.79649 3.27186 3.5682C2.49013 4.33775 1.8385 5.22724 1.34203 6.20248C0.844184 7.17577 0.498976 8.21874 0.318329 9.29537C0.135965 10.3706 0.0378333 11.4583 0.0248145 12.5486C0.00961458 13.0468 0.00800942 13.5467 0 14.045V51.6057C0.00800942 52.1103 0.00961458 52.5991 0.0248145 53.1038C0.0378373 54.194 0.135969 55.2817 0.318329 56.3569C0.498478 57.4341 0.843705 58.4777 1.34203 59.4514C1.83828 60.4234 2.49 61.3093 3.27186 62.0746C4.04655 62.8497 4.94169 63.4964 5.92307 63.99C6.90328 64.4845 7.95283 64.83 9.03656 65.015C10.1219 65.1919 11.219 65.288 12.3188 65.3023C12.825 65.3134 13.3225 65.3197 13.824 65.3197C14.423 65.323 15.0164 65.323 15.617 65.323H180.392C180.98 65.323 181.579 65.323 182.167 65.3197C182.666 65.3197 183.178 65.3134 183.677 65.3023C184.775 65.2887 185.87 65.1927 186.953 65.015C188.04 64.8287 189.094 64.4833 190.079 63.99C191.059 63.4962 191.953 62.8495 192.727 62.0746C193.507 61.3063 194.16 60.4211 194.663 59.4514C195.157 58.477 195.499 57.4335 195.677 56.3569C195.859 55.2815 195.961 54.1941 195.981 53.1038C195.987 52.5991 195.987 52.1103 195.987 51.6057C196 51.0153 196 50.4282 196 49.8283V15.8192C196 15.2241 196 14.6338 195.987 14.045C195.987 13.5467 195.987 13.0468 195.981 12.5486C195.961 11.4582 195.859 10.3707 195.677 9.29531C195.499 8.2193 195.157 7.17641 194.663 6.20241C193.652 4.24766 192.049 2.65651 190.079 1.65274C189.094 1.16076 188.04 0.817356 186.953 0.63386C185.87 0.454757 184.775 0.358728 183.677 0.346625C183.178 0.338695 182.666 0.329173 182.167 0.326004C181.579 0.322754 180.98 0.322754 180.392 0.322754V0.322965Z" fill="#A6A6A6"/>
<path d="M13.8317 63.9009C13.3327 63.9009 12.8457 63.8945 12.3506 63.8835C11.3249 63.8702 10.3016 63.7816 9.28906 63.6185C8.34495 63.4571 7.43036 63.1571 6.57545 62.7281C5.72839 62.3027 4.9558 61.7449 4.28728 61.0761C3.60909 60.4152 3.04446 59.6487 2.61577 58.8068C2.18236 57.9595 1.88241 57.0513 1.72638 56.1139C1.55788 55.1066 1.46671 54.088 1.45367 53.067C1.44328 52.7243 1.42969 51.5832 1.42969 51.5832V14.0448C1.42969 14.0448 1.44417 12.9213 1.45375 12.5912C1.46624 11.5718 1.55688 10.5548 1.72487 9.54907C1.88119 8.60904 2.18137 7.69822 2.61502 6.84815C3.04213 6.00691 3.60362 5.23978 4.27773 4.57648C4.95109 3.90689 5.72615 3.34624 6.57465 2.91497C7.42759 2.48741 8.34045 2.18944 9.28266 2.03107C10.2985 1.86624 11.3253 1.77712 12.3546 1.76447L13.8325 1.74463H182.159L183.655 1.76527C184.675 1.77729 185.692 1.86561 186.699 2.02948C187.65 2.18984 188.573 2.48988 189.435 2.91973C191.135 3.78886 192.518 5.16389 193.391 6.85212C193.818 7.69632 194.113 8.5997 194.268 9.53161C194.438 10.5456 194.533 11.5706 194.552 12.5983C194.557 13.0585 194.557 13.5529 194.557 14.0448C194.57 14.6542 194.57 15.2342 194.57 15.819V49.8281C194.57 50.4184 194.57 50.9945 194.557 51.5753C194.557 52.1037 194.557 52.5878 194.551 53.086C194.531 54.0954 194.438 55.1021 194.271 56.098C194.118 57.0422 193.819 57.9575 193.386 58.8117C192.954 59.6444 192.393 60.4043 191.723 61.0635C191.054 61.7359 190.28 62.2969 189.431 62.725C188.57 63.1573 187.649 63.4585 186.699 63.6185C185.686 63.7825 184.663 63.8711 183.637 63.8835C183.157 63.8945 182.655 63.9009 182.167 63.9009L180.392 63.9041L13.8317 63.9009Z" fill="black"/>
<path d="M40.5693 33.3113C40.5869 31.955 40.9501 30.6251 41.6249 29.4454C42.2998 28.2657 43.2645 27.2746 44.4292 26.5642C43.6893 25.5158 42.7131 24.653 41.5784 24.0444C40.4436 23.4357 39.1813 23.098 37.892 23.058C35.1415 22.7715 32.4751 24.6908 31.0735 24.6908C29.6448 24.6908 27.4868 23.0864 25.163 23.1338C23.66 23.182 22.1951 23.6156 20.9112 24.3925C19.6273 25.1693 18.568 26.2629 17.8368 27.5666C14.669 33.0078 17.0319 41.0045 20.0663 45.4027C21.5845 47.5564 23.3588 49.9622 25.6805 49.8769C27.9524 49.7834 28.8009 48.4396 31.5433 48.4396C34.2602 48.4396 35.0562 49.8769 37.425 49.8226C39.8629 49.7833 41.3988 47.6593 42.8637 45.4853C43.9546 43.9507 44.7939 42.2546 45.3508 40.4599C43.9345 39.8656 42.7258 38.8708 41.8755 37.5996C41.0253 36.3284 40.571 34.8369 40.5693 33.3113V33.3113Z" fill="white"/>
<path d="M36.0949 20.1654C37.4242 18.5823 38.079 16.5475 37.9204 14.4932C35.8897 14.7048 34.0138 15.6677 32.6667 17.19C32.008 17.9337 31.5035 18.7989 31.1821 19.7362C30.8607 20.6734 30.7286 21.6644 30.7934 22.6523C31.8091 22.6627 32.814 22.4442 33.7323 22.0135C34.6506 21.5827 35.4585 20.9508 36.0949 20.1654Z" fill="white"/>
<path d="M69.2878 44.4247H61.5348L59.673 49.879H56.3892L63.7326 29.6997H67.1444L74.4878 49.879H71.148L69.2878 44.4247ZM62.3378 41.9079H68.4833L65.4538 33.0561H65.369L62.3378 41.9079Z" fill="white"/>
<path d="M90.3472 42.5238C90.3472 47.0958 87.8807 50.0331 84.1586 50.0331C83.2157 50.0821 82.278 49.8666 81.4528 49.4113C80.6277 48.9561 79.9484 48.2796 79.4928 47.4591H79.4223V54.7462H76.3784V35.1669H79.3248V37.6139H79.3808C79.8573 36.7974 80.5481 36.1244 81.3796 35.6664C82.211 35.2084 83.1521 34.9826 84.1026 35.013C87.8662 35.013 90.3472 37.9646 90.3472 42.5238ZM87.2185 42.5238C87.2185 39.5452 85.6669 37.587 83.2996 37.587C80.9739 37.587 79.4096 39.5865 79.4096 42.5238C79.4096 45.4882 80.9739 47.4734 83.2996 47.4734C85.6669 47.4734 87.2185 45.5295 87.2185 42.5238Z" fill="white"/>
<path d="M106.669 42.5238C106.669 47.0957 104.202 50.0331 100.48 50.0331C99.5375 50.082 98.5998 49.8666 97.7746 49.4113C96.9494 48.9561 96.2701 48.2795 95.8145 47.4591H95.7441V54.7462H92.7002V35.1669H95.6465V37.6139H95.7025C96.1791 36.7974 96.8698 36.1243 97.7013 35.6664C98.5327 35.2084 99.4738 34.9826 100.424 35.013C104.188 35.013 106.669 37.9646 106.669 42.5238ZM103.54 42.5238C103.54 39.5452 101.989 37.5869 99.6214 37.5869C97.2957 37.5869 95.7313 39.5864 95.7313 42.5238C95.7313 45.4882 97.2957 47.4734 99.6214 47.4734C101.989 47.4734 103.54 45.5294 103.54 42.5238H103.54Z" fill="white"/>
<path d="M117.456 44.2566C117.681 46.2577 119.641 47.5716 122.318 47.5716C124.884 47.5716 126.73 46.2576 126.73 44.4533C126.73 42.887 125.617 41.9491 122.981 41.3064L120.345 40.6764C116.61 39.7814 114.876 38.0485 114.876 35.2365C114.876 31.7548 117.934 29.3633 122.277 29.3633C126.575 29.3633 129.521 31.7548 129.62 35.2365H126.547C126.364 33.2227 124.686 32.0071 122.234 32.0071C119.781 32.0071 118.104 33.237 118.104 35.027C118.104 36.4536 119.175 37.2931 121.797 37.9357L124.038 38.4816C128.211 39.4608 129.945 41.1239 129.945 44.0755C129.945 47.8508 126.914 50.2153 122.093 50.2153C117.582 50.2153 114.537 47.9063 114.34 44.2564L117.456 44.2566Z" fill="white"/>
<path d="M136.514 31.6851V35.1668H139.334V37.5582H136.514V45.6689C136.514 46.929 137.079 47.5161 138.319 47.5161C138.653 47.5103 138.988 47.487 139.32 47.4462V49.8234C138.762 49.9268 138.196 49.9735 137.629 49.9631C134.627 49.9631 133.456 48.8443 133.456 45.991V37.5582H131.3V35.1668H133.456V31.6851H136.514Z" fill="white"/>
<path d="M140.968 42.5237C140.968 37.8947 143.716 34.9858 148.001 34.9858C152.3 34.9858 155.036 37.8946 155.036 42.5237C155.036 47.1654 152.315 50.0615 148.001 50.0615C143.688 50.0615 140.968 47.1654 140.968 42.5237ZM151.934 42.5237C151.934 39.3483 150.467 37.4741 148.001 37.4741C145.534 37.4741 144.069 39.3626 144.069 42.5237C144.069 45.7118 145.534 47.5717 148.001 47.5717C150.467 47.5717 151.934 45.7118 151.934 42.5237H151.934Z" fill="white"/>
<path d="M157.545 35.1668H160.448V37.6709H160.519C160.715 36.8888 161.177 36.1976 161.826 35.7136C162.476 35.2295 163.274 34.9821 164.085 35.0128C164.436 35.0116 164.786 35.0494 165.128 35.1255V37.9502C164.686 37.8159 164.224 37.7543 163.761 37.7677C163.318 37.7499 162.878 37.8273 162.468 37.9945C162.059 38.1616 161.691 38.4147 161.39 38.7363C161.089 39.0579 160.861 39.4403 160.723 39.8574C160.584 40.2745 160.539 40.7163 160.589 41.1526V49.879H157.545L157.545 35.1668Z" fill="white"/>
<path d="M179.163 45.5579C178.753 48.2286 176.131 50.0615 172.777 50.0615C168.463 50.0615 165.786 47.194 165.786 42.5935C165.786 37.9788 168.478 34.9858 172.649 34.9858C176.752 34.9858 179.332 37.782 179.332 42.2428V43.2775H168.858V43.46C168.81 44.0014 168.878 44.5469 169.059 45.0601C169.239 45.5733 169.528 46.0426 169.905 46.4368C170.282 46.8309 170.74 47.1409 171.247 47.3461C171.755 47.5514 172.3 47.6472 172.848 47.6272C173.567 47.6941 174.289 47.5288 174.906 47.1559C175.523 46.7831 176.002 46.2226 176.272 45.5578L179.163 45.5579ZM168.873 41.1669H176.287C176.314 40.68 176.239 40.1928 176.068 39.7359C175.897 39.2789 175.632 38.862 175.29 38.5114C174.949 38.1608 174.538 37.884 174.083 37.6984C173.629 37.5128 173.141 37.4224 172.649 37.4329C172.154 37.4299 171.662 37.5244 171.203 37.7109C170.745 37.8973 170.328 38.1721 169.977 38.5192C169.626 38.8664 169.347 39.2791 169.158 39.7335C168.968 40.1879 168.871 40.6751 168.873 41.1669V41.1669Z" fill="white"/>
<path d="M61.9564 14.511C62.5946 14.4656 63.2349 14.5612 63.8313 14.791C64.4277 15.0209 64.9653 15.3792 65.4052 15.84C65.8451 16.3009 66.1764 16.8529 66.3753 17.4563C66.5741 18.0596 66.6355 18.6992 66.5551 19.3289C66.5551 22.4265 64.8676 24.2071 61.9564 24.2071H58.4263V14.511H61.9564ZM59.9442 22.8359H61.7869C62.2429 22.8629 62.6992 22.7887 63.1227 22.6187C63.5461 22.4487 63.9261 22.1872 64.2348 21.8532C64.5436 21.5191 64.7733 21.121 64.9074 20.6877C65.0415 20.2545 65.0765 19.797 65.0099 19.3486C65.0717 18.902 65.0331 18.4474 64.897 18.0173C64.7608 17.5872 64.5305 17.1924 64.2225 16.861C63.9144 16.5296 63.5363 16.2699 63.1152 16.1005C62.6942 15.9311 62.2405 15.8562 61.7869 15.8812H59.9442V22.8359Z" fill="white"/>
<path d="M68.2699 20.5451C68.2235 20.0643 68.279 19.5791 68.4327 19.1207C68.5864 18.6624 68.8349 18.241 69.1624 17.8835C69.4899 17.526 69.8891 17.2404 70.3344 17.0449C70.7796 16.8495 71.2611 16.7485 71.7481 16.7485C72.235 16.7485 72.7165 16.8495 73.1618 17.0449C73.607 17.2404 74.0062 17.526 74.3337 17.8835C74.6612 18.241 74.9098 18.6624 75.0635 19.1207C75.2172 19.5791 75.2726 20.0643 75.2262 20.5451C75.2735 21.0265 75.2187 21.5124 75.0654 21.9715C74.9121 22.4306 74.6637 22.8528 74.3361 23.2109C74.0085 23.5691 73.6091 23.8553 73.1633 24.0512C72.7176 24.2471 72.2355 24.3483 71.7481 24.3483C71.2606 24.3483 70.7785 24.2471 70.3328 24.0512C69.887 23.8553 69.4876 23.5691 69.16 23.2109C68.8324 22.8528 68.584 22.4306 68.4307 21.9715C68.2774 21.5124 68.2226 21.0265 68.2699 20.5451V20.5451ZM73.7291 20.5451C73.7291 18.959 73.0109 18.0315 71.7504 18.0315C70.4852 18.0315 69.7735 18.959 69.7735 20.5452C69.7735 22.144 70.4853 23.0644 71.7504 23.0644C73.0109 23.0644 73.7291 22.1376 73.7291 20.5451H73.7291Z" fill="white"/>
<path d="M84.4728 24.2069H82.9629L81.4385 18.8177H81.3234L79.8054 24.2069H78.3099L76.2769 16.8896H77.7532L79.0744 22.4731H79.1832L80.6996 16.8896H82.096L83.6123 22.4731H83.7275L85.0423 16.8896H86.4978L84.4728 24.2069Z" fill="white"/>
<path d="M88.208 16.8897H89.6092V18.0521H89.718C89.9025 17.6346 90.2137 17.2846 90.6082 17.0509C91.0028 16.8172 91.4609 16.7115 91.9189 16.7484C92.2778 16.7216 92.6381 16.7753 92.9732 16.9055C93.3084 17.0356 93.6097 17.2389 93.8548 17.5003C94.1 17.7617 94.2828 18.0744 94.3895 18.4154C94.4963 18.7563 94.5244 19.1168 94.4718 19.47V24.2068H93.0162V19.8326C93.0162 18.6567 92.5012 18.0719 91.4247 18.0719C91.181 18.0607 90.9378 18.1018 90.7117 18.1925C90.4855 18.2832 90.2819 18.4214 90.1146 18.5975C89.9473 18.7737 89.8204 18.9836 89.7426 19.2129C89.6647 19.4423 89.6378 19.6856 89.6636 19.9262V24.2069H88.208L88.208 16.8897Z" fill="white"/>
<path d="M96.791 14.0332H98.2466V24.2069H96.791V14.0332Z" fill="white"/>
<path d="M100.27 20.5453C100.223 20.0644 100.279 19.5792 100.433 19.1208C100.586 18.6624 100.835 18.241 101.163 17.8835C101.49 17.526 101.889 17.2404 102.335 17.0449C102.78 16.8495 103.261 16.7485 103.748 16.7485C104.235 16.7485 104.717 16.8495 105.162 17.0449C105.608 17.2404 106.007 17.526 106.334 17.8835C106.662 18.241 106.91 18.6624 107.064 19.1208C107.218 19.5792 107.273 20.0644 107.227 20.5453C107.274 21.0267 107.219 21.5125 107.066 21.9716C106.913 22.4307 106.664 22.8529 106.337 23.2111C106.009 23.5692 105.609 23.8554 105.164 24.0513C104.718 24.2472 104.236 24.3483 103.748 24.3483C103.261 24.3483 102.779 24.2472 102.333 24.0513C101.887 23.8554 101.488 23.5692 101.16 23.2111C100.833 22.8529 100.584 22.4307 100.431 21.9716C100.277 21.5125 100.223 21.0267 100.27 20.5453V20.5453ZM105.729 20.5453C105.729 18.9592 105.011 18.0316 103.75 18.0316C102.485 18.0316 101.773 18.9592 101.773 20.5453C101.773 22.1441 102.485 23.0645 103.75 23.0645C105.011 23.0645 105.729 22.1378 105.729 20.5453H105.729Z" fill="white"/>
<path d="M108.759 22.1377C108.759 20.8205 109.748 20.0612 111.502 19.9533L113.5 19.839V19.2075C113.5 18.4346 112.985 17.9982 111.99 17.9982C111.178 17.9982 110.615 18.2942 110.453 18.8115H109.044C109.193 17.5547 110.384 16.7485 112.058 16.7485C113.907 16.7485 114.949 17.6618 114.949 19.2075V24.207H113.548V23.1787H113.433C113.199 23.5476 112.871 23.8483 112.482 24.0501C112.093 24.252 111.656 24.3477 111.218 24.3276C110.908 24.3595 110.595 24.3268 110.299 24.2314C110.003 24.136 109.73 23.9801 109.499 23.7738C109.267 23.5675 109.082 23.3153 108.954 23.0335C108.827 22.7517 108.76 22.4465 108.759 22.1377V22.1377ZM113.5 21.5124V20.9007L111.699 21.0149C110.684 21.0824 110.223 21.4252 110.223 22.0702C110.223 22.7288 110.799 23.112 111.59 23.112C111.822 23.1353 112.057 23.1121 112.28 23.0437C112.502 22.9753 112.709 22.8631 112.887 22.7139C113.065 22.5647 113.211 22.3814 113.317 22.175C113.422 21.9686 113.485 21.7433 113.5 21.5124V21.5124Z" fill="white"/>
<path d="M116.863 20.5451C116.863 18.233 118.061 16.7683 119.924 16.7683C120.385 16.7472 120.843 16.8567 121.243 17.0841C121.644 17.3114 121.971 17.6471 122.186 18.052H122.295V14.0332H123.75V24.2069H122.356V23.0508H122.24C122.008 23.453 121.67 23.7846 121.262 24.0096C120.854 24.2346 120.391 24.3446 119.924 24.3275C118.048 24.3276 116.863 22.8628 116.863 20.5451ZM118.366 20.5451C118.366 22.0971 119.104 23.031 120.337 23.031C121.564 23.031 122.322 22.0837 122.322 20.5515C122.322 19.0265 121.556 18.0656 120.337 18.0656C119.112 18.0656 118.366 19.0058 118.366 20.5451H118.366Z" fill="white"/>
<path d="M129.772 20.5451C129.726 20.0643 129.781 19.5791 129.935 19.1207C130.089 18.6624 130.337 18.241 130.665 17.8835C130.992 17.526 131.392 17.2404 131.837 17.0449C132.282 16.8495 132.764 16.7485 133.25 16.7485C133.737 16.7485 134.219 16.8495 134.664 17.0449C135.109 17.2404 135.509 17.526 135.836 17.8835C136.164 18.241 136.412 18.6624 136.566 19.1207C136.72 19.5791 136.775 20.0643 136.729 20.5451C136.776 21.0265 136.721 21.5124 136.568 21.9715C136.415 22.4306 136.166 22.8528 135.839 23.2109C135.511 23.5691 135.111 23.8553 134.666 24.0512C134.22 24.2471 133.738 24.3483 133.25 24.3483C132.763 24.3483 132.281 24.2471 131.835 24.0512C131.389 23.8553 130.99 23.5691 130.662 23.2109C130.335 22.8528 130.086 22.4306 129.933 21.9715C129.78 21.5124 129.725 21.0265 129.772 20.5451V20.5451ZM135.232 20.5451C135.232 18.959 134.513 18.0315 133.253 18.0315C131.988 18.0315 131.276 18.959 131.276 20.5452C131.276 22.144 131.988 23.0644 133.253 23.0644C134.513 23.0644 135.232 22.1376 135.232 20.5451Z" fill="white"/>
<path d="M138.682 16.8897H140.083V18.0521H140.192C140.376 17.6346 140.687 17.2846 141.082 17.0509C141.476 16.8172 141.935 16.7115 142.393 16.7484C142.751 16.7216 143.112 16.7753 143.447 16.9055C143.782 17.0356 144.083 17.2389 144.328 17.5003C144.574 17.7617 144.756 18.0744 144.863 18.4154C144.97 18.7563 144.998 19.1168 144.945 19.47V24.2068H143.49V19.8326C143.49 18.6567 142.975 18.0719 141.898 18.0719C141.655 18.0607 141.411 18.1018 141.185 18.1925C140.959 18.2832 140.755 18.4214 140.588 18.5975C140.421 18.7737 140.294 18.9836 140.216 19.2129C140.138 19.4423 140.111 19.6856 140.137 19.9262V24.2069H138.682V16.8897Z" fill="white"/>
<path d="M153.171 15.0679V16.923H154.768V18.1393H153.171V21.9019C153.171 22.6684 153.489 23.004 154.213 23.004C154.399 23.0034 154.584 22.9923 154.768 22.9707V24.1736C154.507 24.22 154.242 24.2447 153.977 24.2474C152.358 24.2474 151.713 23.6824 151.713 22.2717V18.1393H150.542V16.9229H151.713V15.0679H153.171Z" fill="white"/>
<path d="M156.756 14.0332H158.199V18.0656H158.314C158.508 17.6442 158.828 17.2922 159.23 17.0576C159.632 16.8231 160.098 16.7173 160.563 16.7548C160.92 16.7355 161.277 16.7946 161.608 16.9279C161.94 17.0613 162.237 17.2655 162.48 17.526C162.722 17.7866 162.904 18.097 163.012 18.4353C163.12 18.7735 163.151 19.1311 163.103 19.4827V24.2069H161.646V19.8389C161.646 18.6702 161.097 18.0782 160.069 18.0782C159.819 18.0579 159.567 18.092 159.332 18.1782C159.096 18.2644 158.883 18.4006 158.706 18.5773C158.529 18.754 158.393 18.9669 158.308 19.2012C158.222 19.4354 158.19 19.6853 158.212 19.9333V24.2069H156.756L156.756 14.0332Z" fill="white"/>
<path d="M171.59 22.2314C171.393 22.9002 170.964 23.4787 170.38 23.8657C169.796 24.2527 169.093 24.4235 168.395 24.3484C167.909 24.3611 167.426 24.2688 166.979 24.0778C166.533 23.8868 166.134 23.6017 165.81 23.2424C165.486 22.883 165.244 22.458 165.102 21.9968C164.96 21.5356 164.921 21.0493 164.988 20.5715C164.923 20.0923 164.963 19.605 165.104 19.1424C165.246 18.6798 165.486 18.2528 165.809 17.8903C166.131 17.5278 166.528 17.2383 166.973 17.0413C167.418 16.8443 167.901 16.7445 168.388 16.7487C170.44 16.7487 171.678 18.1397 171.678 20.4374V20.9413H166.47V21.0222C166.447 21.2908 166.481 21.561 166.57 21.8158C166.659 22.0705 166.8 22.304 166.985 22.5014C167.17 22.6987 167.394 22.8556 167.644 22.9619C167.894 23.0681 168.163 23.1215 168.434 23.1185C168.783 23.1599 169.135 23.0977 169.448 22.9398C169.76 22.7818 170.018 22.5352 170.189 22.2314L171.59 22.2314ZM166.47 19.8733H170.196C170.214 19.6277 170.18 19.381 170.097 19.1491C170.013 18.9172 169.882 18.7052 169.711 18.5266C169.54 18.3481 169.333 18.2071 169.104 18.1125C168.875 18.018 168.628 17.9721 168.38 17.9777C168.128 17.9746 167.878 18.0215 167.645 18.1156C167.412 18.2098 167.2 18.3493 167.022 18.526C166.844 18.7026 166.704 18.9129 166.609 19.1443C166.514 19.3756 166.467 19.6235 166.47 19.8733H166.47Z" fill="white"/>
</g>
<defs>
<clipPath id="clip0_53_10448">
<rect width="196" height="65" fill="white" transform="translate(0 0.322754)"/>
</clipPath>
</defs>
</svg>
