<svg width="221" height="66" viewBox="0 0 221 66" fill="none" xmlns="http://www.w3.org/2000/svg">
<g clip-path="url(#clip0_53_10449)">
<path fill-rule="evenodd" clip-rule="evenodd" d="M212.812 65.3228H8.1882C3.67534 65.3228 0 61.6594 0 57.1978V8.44775C0 3.96989 3.67534 0.322754 8.1882 0.322754H212.812C217.321 0.322754 221 3.96989 221 8.44775V57.1978C221 61.6594 217.321 65.3228 212.812 65.3228Z" fill="black"/>
<path fill-rule="evenodd" clip-rule="evenodd" d="M212.812 1.62356C216.597 1.62356 219.695 4.69121 219.695 8.44775V57.1978C219.695 60.9543 216.617 64.0219 212.812 64.0219H8.1882C4.40309 64.0219 1.30507 60.9543 1.30507 57.1978V8.44775C1.30507 4.69121 4.38276 1.62356 8.1882 1.62356C8.1882 1.62356 212.812 1.62356 212.812 1.62356ZM212.812 0.322754H8.1882C3.67534 0.322754 0 3.9861 0 8.44775V57.1978C0 61.6756 3.67534 65.3228 8.1882 65.3228H212.812C217.321 65.3228 221 61.6756 221 57.1978V8.44775C221 3.9861 217.321 0.322754 212.812 0.322754Z" fill="#A6A6A6"/>
<path d="M116.423 21.8247C114.947 21.8247 113.703 21.31 112.72 20.2969C111.744 19.3122 111.199 17.9547 111.223 16.5688C111.223 15.0896 111.727 13.8375 112.72 12.8446C113.699 11.8315 114.943 11.3169 116.419 11.3169C117.879 11.3169 119.123 11.8315 120.123 12.8446C121.115 13.8699 121.619 15.1221 121.619 16.5688C121.603 18.0519 121.099 19.3041 120.123 20.2929C119.143 21.3141 117.899 21.8247 116.423 21.8247ZM72.5106 21.8247C71.0673 21.8247 69.8151 21.3181 68.7905 20.3172C67.7741 19.3203 67.2578 18.06 67.2578 16.5728C67.2578 15.0856 67.7741 13.8253 68.7905 12.8284C69.7948 11.8275 71.047 11.3209 72.5106 11.3209C73.2261 11.3209 73.9214 11.4628 74.5881 11.7505C75.2427 12.0301 75.7753 12.411 76.1696 12.8771L76.2672 12.9946L75.1654 14.0725L75.0516 13.9388C74.4296 13.2012 73.5961 12.8406 72.4943 12.8406C71.5104 12.8406 70.6526 13.1891 69.9452 13.878C69.2337 14.5709 68.8719 15.4787 68.8719 16.5769C68.8719 17.6751 69.2337 18.5828 69.9452 19.2757C70.6526 19.9647 71.5104 20.3132 72.4943 20.3132C73.5432 20.3132 74.4255 19.9647 75.1126 19.2757C75.5191 18.8705 75.7712 18.3032 75.8607 17.5859H72.3276V16.0703H77.3771L77.3974 16.2081C77.434 16.4634 77.4706 16.7268 77.4706 16.9699C77.4706 18.368 77.0478 19.4986 76.2103 20.3334C75.2589 21.3222 74.0149 21.8247 72.5106 21.8247ZM130.897 21.6099H129.34L124.571 14.0036L124.611 15.3733V21.6059H123.054V11.5357H124.831L124.88 11.6127L129.364 18.7773L129.323 17.4117V11.5357H130.897V21.6099V21.6099ZM104.722 21.6099H103.145V13.0513H100.409V11.5357H107.455V13.0513H104.718V21.6099H104.722ZM99.1241 21.6099H97.5507V11.5357H99.1241V21.6099ZM90.2814 21.6099H88.708V13.0513H85.9718V11.5357H93.0175V13.0513H90.2814V21.6099ZM84.9758 21.5937H78.9424V11.5357H84.9758V13.0513H80.5198V15.815H84.5407V17.3144H80.5198V20.0781H84.9758V21.5937ZM113.874 19.2555C114.577 19.9565 115.431 20.3091 116.423 20.3091C117.444 20.3091 118.277 19.9647 118.972 19.2555C119.664 18.5666 120.013 17.6629 120.013 16.5728C120.013 15.4827 119.664 14.575 118.976 13.8901C118.273 13.1891 117.415 12.8365 116.427 12.8365C115.407 12.8365 114.573 13.181 113.882 13.8901C113.191 14.5791 112.841 15.4827 112.841 16.5728C112.841 17.6629 113.187 18.5706 113.874 19.2555Z" fill="white"/>
<path fill-rule="evenodd" clip-rule="evenodd" d="M111.077 35.6757C107.235 35.6757 104.121 38.5812 104.121 42.589C104.121 46.5603 107.256 49.5024 111.077 49.5024C114.919 49.5024 118.034 46.5765 118.034 42.589C118.034 38.5812 114.919 35.6757 111.077 35.6757ZM111.077 46.763C108.975 46.763 107.166 45.0285 107.166 42.5728C107.166 40.0806 108.979 38.3827 111.077 38.3827C113.179 38.3827 114.988 40.0806 114.988 42.5728C114.992 45.0447 113.179 46.763 111.077 46.763ZM95.9002 35.6757C92.0582 35.6757 88.9439 38.5812 88.9439 42.589C88.9439 46.5603 92.0785 49.5024 95.9002 49.5024C99.7422 49.5024 102.856 46.5765 102.856 42.589C102.856 38.5812 99.7382 35.6757 95.9002 35.6757ZM95.9002 46.763C93.7982 46.763 91.989 45.0285 91.989 42.5728C91.989 40.0806 93.8023 38.3827 95.9002 38.3827C98.0021 38.3827 99.8113 40.0806 99.8113 42.5728C99.8113 45.0447 98.0021 46.763 95.9002 46.763ZM77.8406 37.787V40.7128H84.8863C84.6709 42.354 84.1261 43.5656 83.2926 44.3964C82.2599 45.4257 80.6662 46.5441 77.8569 46.5441C73.5269 46.5441 70.1403 43.0591 70.1403 38.7433C70.1403 34.4275 73.5269 30.9425 77.8569 30.9425C80.1946 30.9425 81.8981 31.8624 83.1625 33.0376L85.2441 30.9628C83.4878 29.2851 81.15 28.0005 77.8731 28.0005C71.9332 28.0005 66.9487 32.8228 66.9487 38.7271C66.9487 44.6476 71.9291 49.4537 77.8731 49.4537C81.0809 49.4537 83.4878 48.4082 85.3905 46.4388C87.3298 44.5058 87.9437 41.7785 87.9437 39.5781C87.9437 38.8933 87.8909 38.2773 87.7811 37.7545H77.8365C77.8406 37.7505 77.8406 37.787 77.8406 37.787ZM151.709 40.0644C151.128 38.5123 149.372 35.6595 145.769 35.6595C142.2 35.6595 139.232 38.4597 139.232 42.5728C139.232 46.455 142.167 49.4861 146.115 49.4861C149.286 49.4861 151.132 47.5532 151.892 46.4185L149.538 44.8462C148.758 46.0011 147.672 46.7589 146.131 46.7589C144.574 46.7589 143.484 46.0538 142.761 44.6638L152.035 40.8343C152.035 40.8384 151.709 40.0644 151.709 40.0644ZM142.253 42.3742C142.179 39.7037 144.334 38.3462 145.875 38.3462C147.091 38.3462 148.103 38.9419 148.449 39.8091L142.253 42.3742ZM134.719 49.0728H137.764V28.7623H134.719V49.0728ZM129.718 37.2115H129.608C128.921 36.397 127.616 35.6595 125.949 35.6595C122.489 35.6595 119.302 38.6947 119.302 42.5931C119.302 46.4752 122.473 49.474 125.949 49.474C127.596 49.474 128.921 48.7324 129.608 47.9017H129.718V48.8945C129.718 51.5326 128.303 52.955 126.023 52.955C124.156 52.955 122.998 51.6177 122.526 50.4992L119.879 51.6015C120.64 53.425 122.668 55.6822 126.018 55.6822C129.588 55.6822 132.613 53.5871 132.613 48.4771V36.0728H129.734V37.2115C129.739 37.2115 129.718 37.2115 129.718 37.2115ZM126.222 46.763C124.12 46.763 122.363 45.0123 122.363 42.5931C122.363 40.1535 124.12 38.3867 126.222 38.3867C128.303 38.3867 129.917 40.1738 129.917 42.5931C129.938 45.0123 128.307 46.763 126.222 46.763ZM165.967 28.7623H158.686V49.0728H161.731V41.3814H165.972C169.342 41.3814 172.655 38.9459 172.655 35.08C172.655 31.214 169.354 28.7623 165.967 28.7623ZM166.057 38.5448H161.727V31.5747H166.057C168.338 31.5747 169.627 33.4509 169.627 35.0597C169.627 36.6523 168.321 38.5448 166.057 38.5448ZM184.861 35.6392C182.649 35.6392 180.368 36.6158 179.425 38.7433L182.124 39.8618C182.706 38.7433 183.771 38.3624 184.897 38.3624C186.475 38.3624 188.068 39.3025 188.105 40.9802V41.195C187.56 40.887 186.365 40.4169 184.934 40.4169C182.019 40.4169 179.063 42.0055 179.063 44.984C179.063 47.7112 181.454 49.4618 184.117 49.4618C186.162 49.4618 187.288 48.5419 187.991 47.4762H188.101V49.0485H191.036V41.2679C191.036 37.6451 188.337 35.6392 184.861 35.6392ZM184.478 46.763C183.482 46.763 182.088 46.2767 182.088 45.0285C182.088 43.4562 183.828 42.8605 185.312 42.8605C186.653 42.8605 187.288 43.1482 188.085 43.5454C187.865 45.3689 186.32 46.7467 184.478 46.763ZM201.745 36.0728L198.249 44.8827H198.139L194.516 36.0728H191.24L196.675 48.388L193.577 55.2324H196.748L205.112 36.0728H201.745ZM174.335 49.0728H177.38V28.7623H174.335V49.0728Z" fill="white"/>
<path fill-rule="evenodd" clip-rule="evenodd" d="M17.0106 12.565C16.539 13.0715 16.2666 13.8455 16.2666 14.8586V50.791C16.2666 51.8041 16.539 52.5781 17.0269 53.0644L17.1529 53.1738L37.351 33.0416V32.5918L17.1366 12.4556L17.0106 12.565Z" fill="url(#paint0_linear_53_10449)"/>
<path fill-rule="evenodd" clip-rule="evenodd" d="M44.0713 39.7727L37.3345 33.0579V32.5878L44.0713 25.873L44.2176 25.9622L52.1863 30.4765C54.4672 31.7571 54.4672 33.8724 52.1863 35.1692L44.2176 39.6835L44.0713 39.7727Z" fill="url(#paint1_linear_53_10449)"/>
<path fill-rule="evenodd" clip-rule="evenodd" d="M44.218 39.6834L37.3349 32.8228L17.0107 53.0805C17.7548 53.8748 19.0029 53.964 20.3974 53.19L44.218 39.6834Z" fill="url(#paint2_linear_53_10449)"/>
<path fill-rule="evenodd" clip-rule="evenodd" d="M44.218 25.9622L20.3974 12.4759C19.0029 11.6817 17.7507 11.7911 17.0107 12.5854L37.3349 32.8229L44.218 25.9622Z" fill="url(#paint3_linear_53_10449)"/>
<path opacity="0.2" fill-rule="evenodd" clip-rule="evenodd" d="M44.0716 39.5376L20.4136 52.9347C19.0922 53.6925 17.9132 53.6398 17.1529 52.9509L17.0269 53.0765L17.1529 53.1859C17.9132 53.8708 19.0922 53.9275 20.4136 53.1697L44.2343 39.6835L44.0716 39.5376Z" fill="black"/>
<path opacity="0.12" fill-rule="evenodd" clip-rule="evenodd" d="M52.1866 34.934L44.0513 39.5375L44.1976 39.6834L52.1663 35.1691C53.3087 34.5207 53.8698 33.6697 53.8698 32.8228C53.8007 33.6008 53.2193 34.3383 52.1866 34.934Z" fill="black"/>
<path opacity="0.25" fill-rule="evenodd" clip-rule="evenodd" d="M20.3973 12.7107L52.1865 30.7114C53.2192 31.2908 53.8006 32.0486 53.89 32.8226C53.89 31.9757 53.329 31.1247 52.1865 30.4763L20.3973 12.4757C18.1165 11.1749 16.2666 12.2609 16.2666 14.8585V15.0935C16.2666 12.4919 18.1165 11.4261 20.3973 12.7107Z" fill="white"/>
</g>
<defs>
<linearGradient id="paint0_linear_53_10449" x1="35.5393" y1="14.4709" x2="3.19947" y2="23.1161" gradientUnits="userSpaceOnUse">
<stop stop-color="#00A0FF"/>
<stop offset="0.00657" stop-color="#00A1FF"/>
<stop offset="0.2601" stop-color="#00BEFF"/>
<stop offset="0.5122" stop-color="#00D2FF"/>
<stop offset="0.7604" stop-color="#00DFFF"/>
<stop offset="1" stop-color="#00E3FF"/>
</linearGradient>
<linearGradient id="paint1_linear_53_10449" x1="55.1608" y1="32.8229" x2="15.7119" y2="32.8229" gradientUnits="userSpaceOnUse">
<stop stop-color="#FFE000"/>
<stop offset="0.4087" stop-color="#FFBD00"/>
<stop offset="0.7754" stop-color="#FFA500"/>
<stop offset="1" stop-color="#FF9C00"/>
</linearGradient>
<linearGradient id="paint2_linear_53_10449" x1="40.4752" y1="36.5559" x2="14.627" y2="80.2031" gradientUnits="userSpaceOnUse">
<stop stop-color="#FF3A44"/>
<stop offset="1" stop-color="#C31162"/>
</linearGradient>
<linearGradient id="paint3_linear_53_10449" x1="11.8929" y1="0.613419" x2="23.4248" y2="20.1068" gradientUnits="userSpaceOnUse">
<stop stop-color="#32A071"/>
<stop offset="0.0685" stop-color="#2DA771"/>
<stop offset="0.4762" stop-color="#15CF74"/>
<stop offset="0.8009" stop-color="#06E775"/>
<stop offset="1" stop-color="#00F076"/>
</linearGradient>
<clipPath id="clip0_53_10449">
<rect width="221" height="65" fill="white" transform="translate(0 0.322754)"/>
</clipPath>
</defs>
</svg>
