<svg width="50" height="51" viewBox="0 0 50 51" fill="none" xmlns="http://www.w3.org/2000/svg">
<g clip-path="url(#clip0_53_10648)">
<path d="M46.2988 0.173828H3.69141C1.65039 0.173828 0 1.78516 0 3.77734V46.5605C0 48.5527 1.65039 50.1738 3.69141 50.1738H46.2988C48.3398 50.1738 50 48.5527 50 46.5703V3.77734C50 1.78516 48.3398 0.173828 46.2988 0.173828ZM14.834 42.7812H7.41211V18.9141H14.834V42.7812ZM11.123 15.6621C8.74023 15.6621 6.81641 13.7383 6.81641 11.3652C6.81641 8.99219 8.74023 7.06836 11.123 7.06836C13.4961 7.06836 15.4199 8.99219 15.4199 11.3652C15.4199 13.7285 13.4961 15.6621 11.123 15.6621ZM42.6074 42.7812H35.1953V31.1797C35.1953 28.416 35.1465 24.8516 31.3379 24.8516C27.4805 24.8516 26.8945 27.8691 26.8945 30.9844V42.7812H19.4922V18.9141H26.6016V22.1758H26.6992C27.6855 20.3008 30.1074 18.3184 33.7109 18.3184C41.2207 18.3184 42.6074 23.2598 42.6074 29.6855V42.7812V42.7812Z" fill="#010101"/>
</g>
<defs>
<clipPath id="clip0_53_10648">
<rect width="50" height="50" fill="white" transform="translate(0 0.173828)"/>
</clipPath>
</defs>
</svg>
